<?xml version="1.0" encoding="UTF-8" standalone="no"?>
<!-- Created with Inkscape (http://www.inkscape.org/) -->

<svg
   xmlns:dc="http://purl.org/dc/elements/1.1/"
   xmlns:cc="http://creativecommons.org/ns#"
   xmlns:rdf="http://www.w3.org/1999/02/22-rdf-syntax-ns#"
   xmlns:svg="http://www.w3.org/2000/svg"
   xmlns="http://www.w3.org/2000/svg"
   xmlns:sodipodi="http://sodipodi.sourceforge.net/DTD/sodipodi-0.dtd"
   xmlns:inkscape="http://www.inkscape.org/namespaces/inkscape"
   id="svg2"
   version="1.1"
   inkscape:version="0.91 r13725"
   width="80.045731"
   height="80.056671"
   viewBox="0 0 80.045731 80.056671"
   sodipodi:docname="kedai-kosim-logo-lingkaran.svg">
  <sodipodi:namedview
     pagecolor="#ffffff"
     bordercolor="#666666"
     borderopacity="1"
     objecttolerance="10"
     gridtolerance="10"
     guidetolerance="10"
     inkscape:pageopacity="0"
     inkscape:pageshadow="2"
     inkscape:window-width="1366"
     inkscape:window-height="705"
     id="namedview4"
     showgrid="false"
     inkscape:zoom="4.17193"
     inkscape:cx="88.054378"
     inkscape:cy="35.619865"
     inkscape:window-x="0"
     inkscape:window-y="30"
     inkscape:window-maximized="1"
     inkscape:current-layer="svg2"
     fit-margin-top="0"
     fit-margin-left="0"
     fit-margin-right="0"
     fit-margin-bottom="0" />
  <metadata
     id="metadata8">
    <rdf:RDF>
      <cc:Work
         rdf:about="">
        <dc:format>image/svg+xml</dc:format>
        <dc:type
           rdf:resource="http://purl.org/dc/dcmitype/StillImage" />
        <dc:title></dc:title>
      </cc:Work>
    </rdf:RDF>
  </metadata>
  <defs
     id="defs6" />
  <path
     inkscape:connector-curvature="0"
     id="path3441"
     d="M 34.811682,79.744286 C 7.7817822,77.013836 -8.3964868,46.036608 4.3657722,21.448182 20.214782,-9.0873132 65.159882,-6.6180702 77.509782,25.466647 c 10.96699,28.491951 -11.77492,57.401369 -42.6981,54.277639 z m 11.31278,-2.98819 c 30.34527,-5.1642 42.09019,-42.448638 20.08076,-63.74668 C 43.739942,-8.7297382 5.9684122,5.1013168 2.9110222,36.186278 0.52039517,60.492206 22.183822,80.830356 46.124462,76.756096 Z m -8.78978,-2.88622 C 13.509662,71.879576 -1.0110459,46.337848 9.4849818,24.882634 21.821652,-0.3350852 57.801562,-0.6624642 70.525692,24.32723 c 12.07413,23.713118 -6.71225,51.754646 -33.19101,49.542646 z m -9.59419,-22.969808 c 0.51344,-0.9624 1.09621,-1.96957 1.29506,-2.23814 0.3822,-0.51625 1.52554,-2.70258 1.91523,-3.66242 0.33201,-0.81774 8.90037,-16.804657 9.14466,-17.062186 0.32641,-0.344083 0.39175,-0.236348 5.05238,8.330306 2.41719,4.44301 4.46758,8.05455 4.55641,8.02566 0.0888,-0.0289 0.34004,-0.74295 0.55824,-1.58678 0.39673,-1.53422 0.39673,-1.53422 -4.71918,-10.929411 -2.81375,-5.167351 -5.18696,-9.373294 -5.2738,-9.346541 -0.0868,0.02676 -2.35802,4.156337 -5.04707,9.176851 -2.68906,5.020511 -5.00601,9.263541 -5.14879,9.428951 -0.34897,0.4043 -1.93568,3.38207 -1.93568,3.63269 0,0.10943 -0.9156,1.90478 -2.03467,3.98968 -1.11907,2.08491 -2.03468,3.83583 -2.03468,3.89095 0,0.0551 0.61614,0.10021 1.36919,0.10021 1.36919,0 1.36919,0 2.3027,-1.74982 z m 29.04566,1.63855 c 0,-0.23875 -3.94723,-7.37633 -4.07927,-7.37633 -0.0772,0 -0.22093,0.3113 -0.31948,0.69179 -0.0986,0.38048 -0.2901,1.09855 -0.42567,1.59569 -0.49807,1.82652 1.75479,5.20012 3.4726,5.20012 0.7435,0 1.35182,-0.0501 1.35182,-0.11127 z"
     style="fill:#54bcd3" />
  <path
     inkscape:connector-curvature="0"
     id="path3435"
     d="M 36.383728,79.837598 C 4.1080642,76.385755 -11.27545,38.969576 9.4123592,14.237135 30.274828,-10.704116 70.925138,-1.318704 78.855828,30.27036 c 6.65434,26.505194 -15.57171,52.444201 -42.4721,49.567238 z m 10.1326,-2.921475 c 30.0638,-5.366255 41.75495,-42.148714 20.23638,-63.66728 C 44.710038,-8.793822 6.9151712,4.144417 2.8596442,35.12122 -0.38586482,59.910965 21.955997,81.300033 46.516328,76.916123 Z m -9.40012,-3.283597 C 8.8321042,71.021789 -3.9508058,36.656647 15.787817,16.293981 32.999478,-1.461843 62.800518,4.490181 71.766798,27.474403 c 9.11766,23.372289 -9.71533,48.459747 -34.65059,46.158123 z m -2.83715,-19.882033 c 4.87343,-9.006573 5.85237,-10.76471 6.02374,-10.818488 0.0964,-0.03025 0.86062,1.210406 1.69827,2.757015 0.83765,1.546608 2.65138,4.89959 4.03052,7.451071 3.25295,6.01816 2.85614,5.696076 3.60966,2.92993 0.28046,-1.029545 0.80844,-2.970624 1.17331,-4.313508 0.93903,-3.456108 0.67657,-3.430098 2.46388,-0.244161 0.68487,1.220804 0.68487,1.220804 2.13498,1.268212 1.95495,0.06391 1.9755,0.273631 -0.39908,-4.073533 -2.54244,-4.654483 -2.5867,-2.888209 0.34167,-13.635955 2.78933,-10.237458 2.70743,-9.439771 0.96914,-9.439771 -1.61177,0 -1.18913,-0.939557 -3.51269,7.809088 -1.03371,3.892133 -1.90695,7.104079 -1.94053,7.137657 -0.17057,0.170571 -0.73605,-0.810034 -5.37837,-9.326648 -2.75848,-5.060617 -5.09431,-9.200024 -5.19073,-9.198679 -0.0964,0.0013 -2.3727,4.114227 -5.05841,9.13974 -5.51962,10.328317 -5.18584,9.753376 -5.41147,9.321293 -0.0902,-0.172804 -0.98699,-3.463864 -1.99277,-7.313466 -2.19319,-8.394394 -1.8295,-7.568985 -3.335058,-7.568985 -1.575519,0 -1.553927,-0.272716 -0.34431,4.348901 2.860838,10.930544 3.543468,13.522062 3.707228,14.07423 0.1734,0.584642 0.12714,0.693912 -1.87937,4.439817 -2.489858,4.64825 -2.444058,4.32029 -0.60326,4.32029 1.68488,0 1.56781,0.09452 2.77224,-2.238141 0.94545,-1.83109 0.9338,-1.844674 2.02465,2.360337 1.22402,4.718398 1.38125,5.249342 1.55444,5.249342 0.0782,0 1.22227,-1.996015 2.54232,-4.435588 z m -1.8603,-3.336864 c -0.0832,-0.15667 -0.43053,-1.390342 -0.77188,-2.741493 -0.68551,-2.713462 -1.41143,-0.980775 7.01241,-16.737821 0.80986,-1.514862 1.54959,-2.780004 1.64386,-2.811424 0.15359,-0.0512 9.18374,16.269902 9.3224,16.849336 0.0609,0.254492 -1.2389,5.236938 -1.45917,5.593349 -0.23142,0.374445 -0.14564,0.521223 -5.05936,-8.656884 -2.20611,-4.120682 -2.69027,-4.930275 -2.87879,-4.813765 -0.0721,0.04458 -1.76933,3.123621 -3.77155,6.842307 -3.69129,6.855793 -3.76971,6.981557 -4.03792,6.476395 z"
     style="fill:#5d5d5e" />
</svg>
